# xmcd CD database file
#
# Track frame offsets:
#	150
#	10909
#	20879
#	35493
#	50672
#	61661
#	74355
#	86881
#
# Disc length: 1329 seconds
#
# Revision: 0
# Processed by: cddbd v1.5.2PL0 Copyright (c) Steve Scherf et al.
# Submitted via: CDex 1.77
#
DISCID=6b052f08
DTITLE=Gilly Jaxson and Black Coffee - Walking blues
DYEAR=2017
DGENRE=Blues
TTITLE0=No Money Blues
TTITLE1=Out of Site
TTITLE2=Breakdown
TTITLE3=Won't be Long
TTITLE4=Hong Kong Blues
TTITLE5=Hoy
TTITLE6=Panico en Agosto
TTITLE7=? - CORRUPTION STATEMENT
EXTD=YEAR: 2017
EXTT0=
EXTT1=
EXTT2=
EXTT3=
EXTT4=
EXTT5=
EXTT6=
EXTT7=
PLAYORDER=
